<?xml version="1.0" encoding="utf-8"?>
<!-- Generator: Adobe Illustrator 22.0.1, SVG Export Plug-In . SVG Version: 6.00 Build 0)  -->
<svg version="1.1" id="Layer_1" xmlns="http://www.w3.org/2000/svg" xmlns:xlink="http://www.w3.org/1999/xlink" x="0px" y="0px"
	 viewBox="0 0 179.6 145" style="enable-background:new 0 0 179.6 145;" xml:space="preserve">
<style type="text/css">
	.st0{fill:#FFFFFF;}
</style>
<g>
	<path class="st0" d="M174.2,9.6c-2.1-4.4-4.8-6.3-6.5-6.6c-6.1-1.1-11.3,4-15.8,15.5c-5.6,14.1-8.2,42.4-8.4,45.2
		c-0.3,0.1-1.1,0.4-2.3,0.9c-1.6,0.6-4.1,0.1-5.8-2.2c-0.8-1.2-1-2.6-1.2-3.8c-0.2-1.4-0.5-2.8-1.5-3.4c-0.7-0.4-1.3-0.5-2-0.3
		c-1.8,0.5-3.5,2.9-5.7,7.8c-2.3,5.2-10,13.1-14.2,12.3c-4-0.7-3.5-6-3.4-6.7c0.3-0.4,1.7-2.5,5-6.5c4.4-5.4,5.9-10.5,6.4-13.7
		c0.6-3.8,0-6.7-0.7-7.8c-0.9-1.3-1.9-1.9-3-1.8c-1.9,0.1-3.8,2.3-5.9,6.5c-4,8.3-6.7,21.1-6.9,22c-0.1,0.2-0.6,1-3.2,3.5
		c-2.4,2.3-7.2,5-8.8,6c0-0.9,0.1-2.5-0.3-5.1c-0.1-0.4-0.1-0.9-0.2-1.5c-0.7-5.8-2.2-18-11.8-21.4c-7.7-2.7-12.5,1-16.3,5
		c-4.1,4.5-9.1,19.5,0,28.5c3.7,3.7,9.2,5.1,15.7,4.2c3.8-0.5,6.9-1.7,8.2-2.2c-0.5,2.1-2.3,8.9-8,11.8c-4.3,2.2-9.1-3.3-10.5-5
		c-0.7-0.9-1.4-1.8-2.1-2.8c-2.3-3.2-4.5-6.2-7.3-7.3c-3.2-1.3-7.7-1.9-16.7,3c-7.5,4.1-13.3,13.8-14.6,16c-1.4-1.7-7.3-9-11.3-18
		C10,69.7,8.7,59,10.7,44.4c1.3-9.6,8.5-22.4,16.4-29C35,8.8,43.7,9,48.9,12.3c2.6,1.6,4.8,4.7,6,8.7c1.3,4,1.4,8.4,0.2,12
		c-2.5,7.7-4.3,12.6-4.3,12.7c0,0.1-1.1,3.3,0.4,5.5c0.8,1.2,2.2,1.9,4.2,2.1c2.5,0.2,4.9-2,6.9-6.2c1.8-3.6,3.2-8.7,4-13.9
		c0.9-6-0.3-15.2-6.2-21.6c-4.7-5.1-11.6-7.4-20.4-6.7c-10.3,0.7-19,5.9-25.8,15.2c-6.8,9.5-9.1,19.6-9.6,22.5
		c-1.1,6.3-1.1,13.7,0,21.5c1.1,7.3,3.1,14.5,5.8,20.2c4.8,10.5,12.9,19.3,14.1,20.6c-0.5,1.4-3.2,9.7-2.6,17.3
		c0.4,4.4,2,8.8,4.5,12.4c2.8,4,6.6,6.6,10.8,7.5c1,0.2,1.9,0.3,2.8,0.3c1.9,0,3.5-0.5,4.8-1.6c2.9-2.5,3-6.9,2.9-8.2
		c-0.2-3.8-2.9-7.8-5.2-10.4c-1.9-2.2-12.1-15.2-13.4-16.8c0.6-1.4,4.2-9.8,9.3-14c6-5.1,11.2-8.1,16.9-6.7c4.2,1.1,6.8,5.1,8.9,8.4
		c0.6,1,1.2,1.9,1.8,2.6c1.2,1.6,4.7,4.6,9.3,4.6c0,0,0,0,0,0c3.5,0,6.5-1.8,9.2-5.2c5.4-7,5.8-12.6,5.9-13.8c0.7-0.4,3.2-2,6-3.8
		c2.5-1.5,5.4-4,6.7-5.1c0,1,0.1,2.8,1.2,4.4c1.3,1.8,3.4,2.8,6.4,3.1c0.5,0.1,0.9,0.1,1.4,0.1c8.3,0,13.2-8.5,15.9-13.2
		c0.5-0.9,0.9-1.6,1.3-2.1c0.6-0.9,0.8-1.2,0.9-1.4c0.1-0.1,0.1-0.1,0.1-0.2c0-0.1,0.1-0.1,0.2-0.2c0.3-0.2,0.6-0.5,0.8-0.4
		c0.4,0.1,0.7,1,1.1,2c0.5,1.4,1.2,3.2,2.6,4.3c2.6,2.1,6.9,0.6,8.4,0l-0.3,5.1c0,0.5-0.1,1.1-0.1,1.8c-0.5,6.6-1.5,20.5,6.7,30.4
		c2.4,2.9,7.3,7.6,12.8,6.4c2.5-0.5,4.4-2.2,4.7-3.6c0.7-2.8-3.5-5-8.4-7.2c-7.4-3.4-10-13.3-10.9-18.9c-1-6.3-0.2-14.9,0-16.2
		c0.6-0.4,3-2,7.8-4.8c2.7-1.6,7.3-6.1,11.7-12.4c3.5-5.1,7.8-12.9,9-21.7C177.4,18.8,175.8,13,174.2,9.6z M171.7,23.8l-0.1,0.3
		c-2,9.4-5.4,25.1-23.8,36.6c0.6-4.6,3.9-28.8,8.1-38.9c4.8-11.3,7.2-12.2,10-12.2c1.2,0,2.6,0.9,3.7,2.3
		C172.1,14.7,172.8,19,171.7,23.8z M112.5,53.3c-1.4,3.3-3.3,5.7-4.3,6.9c0.5-2.9,2.1-10.3,4.6-13.3c0.6-0.8,0.9-0.8,1-0.8
		C114.2,46.4,114,49.7,112.5,53.3z M85.6,78.6c-0.4,0.2-1.8,0.8-5.5,2.1c-6.6,2.3-13-0.1-16-3.7c-3.9-4.9-2.4-14-0.4-17.8
		c1.2-2.4,4.1-5.4,7.5-6.4c0.8-0.2,1.5-0.4,2.3-0.4c1.2,0,2.4,0.3,3.6,1C86.1,58.4,85.7,76.5,85.6,78.6z M38.3,123.7
		c3.2,3.8,4.7,7.6,3.9,9.8c-0.3,1-1.2,1.7-2.4,2c-0.4,0.1-0.8,0.1-1.3,0.1c-4.5,0-9.6-5-11.5-11.6c-1.8-6.2-0.3-12.9,0.3-15.1
		C28.9,111.2,34.6,119.1,38.3,123.7z"/>
	<path class="st0" d="M117.6,32c0.8,0.3,1.5,0.5,2.2,0.5c1.4,0,2.5-0.6,3.2-1.8c0.2-0.2,0.7-1.1,1-2.2c0.2-1.2,0.1-3-1.8-4.6
		c-1.9-1.5-3.5-1.4-4.5-1.1c-1.6,0.5-3,2.1-3.6,4.1C113.5,29,115.4,31.1,117.6,32z"/>
	<path class="st0" d="M131,34.9c1.1,0.7,2.3,1.1,3.5,1.1c0.6,0,1.2-0.1,1.8-0.3c1-0.4,2.4-1.3,3-3.4c0.5-1.6,0.1-3.1-1.2-4.3
		c-1.5-1.4-3.9-2.1-5.7-1.5c-1.7,0.5-2.9,2.3-3.2,4.3C129,32.6,129.7,34.1,131,34.9z"/>
</g>
</svg>
